<svg xmlns="http://www.w3.org/2000/svg" id="YESSSSSSSSSSS" viewBox="214.17 0 409.45 509.44">
  <defs>
    <style>
      .cls-1 {
        fill: #2ba1ce;
      }

      .cls-2 {
        fill: #5aff9c;
      }

      .cls-3 {
        fill: #25b4d7;
      }

      .cls-4 {
        fill: #41bedc;
      }

      .cls-5, .cls-6 {
        fill: #008ec4;
      }

      .cls-6 {
        font-family: MicrosoftPhagsPa, 'Microsoft PhagsPa';
        font-size: 45.29px;
      }

      .cls-7 {
        fill: #0a9ed1;
        font-family: MicrosoftPhagsPa-Bold, 'Microsoft PhagsPa';
        font-size: 80.27px;
        font-weight: 700;
      }
    </style>
  </defs>
  <polyline class="cls-2" points="532.74 25.63 532.74 25.62 532.75 25.62"/>
  <path class="cls-3" d="m409.34,91.47l-1.5-3.03c1.18-.65,16.76-9.19,29.99-16.43l17.21,34.38.17.34.02.05,6.4,12.79-9.45,5.17-13.15,7.2c-2.58,1.41-4.88,3.16-6.85,5.16l-3.73-7.44-2.66-5.32-.72-1.46-6.18-12.33-1.04-2.11-1.04-2.07-7.47-14.9Z"/>
  <path class="cls-3" d="m555.31,306.78c-10,5.48-20,10.96-30,16.42l-40.22-80.38c-4.53,2.48-9.05,4.98-13.57,7.45-8.27,4.55-16.52,9.09-24.8,13.64-23.42,12.88-52.85,3.69-64.79-20.18l-.26-.52c-11.33-22.63-2.72-50.15,19.5-62.29l20.9-11.45,3.23-1.76c.41,1.16.89,2.3,1.46,3.43l.17.33c7.52,15.02,26.03,20.81,40.77,12.7,5.2-2.86,10.4-5.72,15.6-8.58l4.99-2.73,31.51,62.97,33.62,67.16c.64,1.26,1.26,2.53,1.9,3.79Z"/>
  <path class="cls-4" d="m509.42,51.55c.05-9.57-1.52-6.98-2.88-13.68-.09-.17-.17-.34-.26-.52-.5-.77-1.38-1.28-2.37-1.25-.37,0-.72.1-1.03.24-9.48,5.19-44.59,24.44-46.38,25.43-.54.29-4.04,2.21-8.94,4.9-2.87,1.57-6.22,3.41-9.73,5.34l9.38,33.72h0l8.02,1.05-1.6,11.79-9.45,5.17-13.15,7.2c-2.58,1.41-4.88,3.16-6.85,5.16-2.33,2.36-4.22,5.05-5.63,7.97-3.33,6.92-3.93,15.05-1.25,22.63.41,1.16.89,2.3,1.46,3.43l7.47,15.74c5.88,11.76,33.09,23.42,42.49,10.26,10.62-3,5.75-17.49,7.24-28.42,1.16-7.92-3.86-9.54-3.86-18.32,0-7.88,6.9-.22,13.98-5.81,6.76-5.32,18.68-16,21.31-20,2.41-3.66-2.76-21.61-5.18-29.09l4.42-11.21c-1.47-5.3-3.24-6.48-.55-11.27,2.52-4.48.12-11,3.33-20.46Z"/>
  <path class="cls-3" d="m620.14,271.28c.11-.05.22-.11.32-.17.01,0,.02-.01.03-.02.78-.48,1.3-1.35,1.3-2.33,0-.5-.15-.97-.38-1.38v-.02c-20.08-40.12-40.16-80.24-60.23-120.37-9.27-18.51-18.53-37.02-27.8-55.53-6.25-12.48-12.49-24.96-18.74-37.44-2.32-4.64-5.67-11.34-8.28-16.54-.19-.34-.45-.62-.77-.85.98,2.55,3.24,7.82,2.83,13.35-.73,4.63-4.59,7.5-11.42,12.22-3.33,2.48-5.51,3.34-8.73,5.65-3.77,2.68-7.67,6.57-9.84,11.09-.33.96-.6,1.97-.81,3.02v.08c-1.71,12.14,8.1,14.94,13.32,21.65,2.73,2.88,4.83,7.35,3.67,12.62-1.55,7.62-7.57,14.54-13.46,18.96-4.72,3.53-9.36,5.63-14.31,7.78-3.12,1.39-6.41,2.71-9.59,4.32-2.75,1.51-5.43,3.24-7.98,5.42-1.71,1.49-3.2,3.15-4.46,4.92,0,0-.01.01-.01.02-6.83,10.3-5.42,21.16-.07,27.51,2.61,3.28,6.81,6.09,10.06,8.44,2.96,2.15,5.71,3.38,8.09,6.33,6.02,6.79,5.7,19.03-4.84,26.05-.01,0-.02.01-.03.02-.5.37-.97.66-1.42.85-.09.04-.17.07-.25.11l19.32,11.71c.08-.4.15-.79.24-1.19,5.54-25.05,15.85-30.89,25.14-39.27l18.78,37.53,33.62,67.16c.64,1.26,1.26,2.53,1.9,3.79,21.61-11.82,43.23-23.65,64.82-35.49h0Z"/>
  <path class="cls-1" d="m430.86,79.76c-4.13-7-7.89-10.59-12.04-17.99-14.22-22.97-28.86-40.44-19.71-61.58-.59.23-1.09.65-1.4,1.2,0,0,0,0,0,.01-.06.12-.12.23-.17.36h0c-61.03,121.94-122.04,243.88-183.07,365.82v.02c-.17.37-.28.77-.28,1.2,0,1.52,1.23,2.75,2.75,2.75.05,0,.09-.01.14-.01h0s55.36.01,55.36.01c-.13-.14-.27-.28-.41-.43-.74-.76,10.58.29,9.95-.81,2.36-1.25,35.08-22.76,18.19-14.09-23.38,12-16.39-28.51,6.62-33.67,9.46-2.49,17.39-1.77,27.07-2.36,10.61-.63,23.99-1.07,34.44-3.85,20.87-5.11,34.89-2.87,33.55-26.64,18.65,17.87,4.12-18.73,4.12-18.75-.44-4.17-1.53-8.39-3.36-12.54-2.78-6.13-6.49-11.65-10.66-16.87-4.99-5.81-10.66-11.26-15.82-16.66-8.28-8.49-15.92-16.57-21.79-27.07-7.29-13.13-11.46-30.52-4.48-44.61,4.62-9.83,15.53-15.08,25.69-17.11,21.07-5.83,47.19-.67,60.04-22.33l-2.93-.53c.99-1.94,4.77-3.48,5.33-5.39,1.29-9.61-2.21-19.9-7.09-28.07Z"/>
  <path class="cls-5" d="m582.92,371.53c.45.06.92.02,1.37-.15,1.41-.55,2.11-2.15,1.56-3.56-.06-.14-.13-.28-.21-.4h0c-10.1-20.22-20.22-40.42-30.33-60.63-.64-1.26-1.26-2.53-1.9-3.79l-33.62-67.16-.17-.34-31.34-62.64-4.99,2.73c-5.2,2.87-10.4,5.72-15.6,8.58-7.23,3.98-15.37,4.61-22.68,2.44-7.59-2.24-14.26-7.5-18.09-15.15l-.17-.33c-.56-1.13-1.05-2.28-1.46-3.43-3.8-10.78-.98-22.67,6.88-30.61,1.97-2,4.26-3.75,6.85-5.16l13.15-7.2,9.45-5.17-6.4-12.79-.02-.05-.17-.34-17.21-34.38L402.67,1.76h-.02c-.4-1.03-1.39-1.76-2.56-1.76-.35,0-.68.07-.98.19-9.15,21.14-6.51,36.6,7.71,59.58,4.15,7.4,7.91,10.99,12.04,17.99,4.88,8.17,8.38,18.45,7.09,28.07-.56,1.91-1.33,3.84-2.32,5.78l-.08.14c-12.85,21.66-38.97,16.5-60.04,22.33-10.15,2.03-21.06,7.29-25.69,17.11-6.98,14.09-2.81,31.47,4.48,44.61,5.87,10.51,13.5,18.59,21.79,27.07,5.17,5.4,10.83,10.85,15.82,16.66,4.17,5.22,7.89,10.74,10.66,16.87,1.83,4.15,2.92,8.37,3.36,12.54,0,.02,0,.04,0,.04,1.34,23.76-16.79,40.23-37.67,45.34-10.44,2.79-23.83,3.23-34.44,3.85-9.69.58-17.62-.13-27.07,2.36-23.01,5.17-39.11,25.62-24.84,47.69.02.03.03.04.04.07.63,1.1,1.31,2.06,2.05,2.81.14.15.28.29.41.43h310.48l.02-.03Z"/>
  <text class="cls-6" transform="translate(214.17 419.62)"><tspan x="0" y="0">K-12 Online Arduino</tspan></text>
  <text class="cls-7" transform="translate(214.18 490.94) scale(.83 1)"><tspan x="0" y="0">BLOCK CODE</tspan></text>
</svg>